<svg width="21" height="23" viewBox="0 0 21 23" fill="none" xmlns="http://www.w3.org/2000/svg">
<path d="M0.740476 8.03882H19.2435V18.5571C19.2435 20.6019 17.5858 22.2595 15.5411 22.2595H4.44285C2.39809 22.2595 0.740476 20.6019 0.740476 18.5571V8.03882Z" stroke="black" stroke-width="1.48095"/>
<path fill-rule="evenodd" clip-rule="evenodd" d="M14.2215 6.49535C14.2215 4.15993 12.3282 2.26672 9.9928 2.26672C7.65737 2.26672 5.76412 4.15993 5.76406 6.49535H5.7373V10.0639C5.7373 10.4729 5.40578 10.8044 4.99682 10.8044C4.58787 10.8044 4.25635 10.4729 4.25635 10.0639V6.49535C4.25635 6.42192 4.26704 6.35098 4.28695 6.28401C4.39818 3.22859 6.91021 0.785767 9.9928 0.785767C13.0757 0.785767 15.5879 3.22905 15.6987 6.28486C15.7184 6.35158 15.729 6.42223 15.729 6.49535V10.0639C15.729 10.4729 15.3975 10.8044 14.9886 10.8044C14.5796 10.8044 14.2481 10.4729 14.2481 10.0639V6.49535H14.2215Z" fill="black"/>
</svg>
