<svg width="8" height="11" viewBox="0 0 8 11" fill="none" xmlns="http://www.w3.org/2000/svg">
<path d="M0 11H8V9.03574C7.99915 8.30665 7.70388 7.60766 7.17896 7.09211C6.65405 6.57657 5.94235 6.28657 5.2 6.28574H2.8C2.05765 6.28657 1.34595 6.57657 0.821037 7.09211C0.296118 7.60766 0.000846945 8.30665 0 9.03574V11Z" fill="#985ACE" fill-opacity="0.6"/>
<path d="M1.19971 2.75C1.19971 3.2939 1.36392 3.82559 1.67159 4.27782C1.97926 4.73006 2.41656 5.08253 2.92819 5.29068C3.43983 5.49882 4.00281 5.55328 4.54596 5.44717C5.08911 5.34106 5.58802 5.07914 5.97961 4.69455C6.37119 4.30995 6.63787 3.81995 6.74591 3.2865C6.85394 2.75305 6.79849 2.20012 6.58657 1.69762C6.37464 1.19513 6.01576 0.765633 5.5553 0.463459C5.09485 0.161285 4.55349 0 3.99971 0C3.2571 0 2.54491 0.289732 2.01981 0.805457C1.49471 1.32118 1.19971 2.02066 1.19971 2.75Z" fill="#985ACE" fill-opacity="0.6"/>
</svg>
