<svg width="52" height="52" viewBox="0 0 52 52" fill="none" xmlns="http://www.w3.org/2000/svg">
<g clip-path="url(#clip0_75_286)">
<path d="M47.0811 52H4.91892C3.61434 52 2.36319 51.4818 1.44072 50.5593C0.518242 49.6368 0 48.3857 0 47.0811L0 4.91892C0 3.61434 0.518242 2.36319 1.44072 1.44072C2.36319 0.518242 3.61434 0 4.91892 0L47.0811 0C48.3857 0 49.6368 0.518242 50.5593 1.44072C51.4818 2.36319 52 3.61434 52 4.91892V47.0811C52 48.3857 51.4818 49.6368 50.5593 50.5593C49.6368 51.4818 48.3857 52 47.0811 52ZM4.91892 1.40541C3.98708 1.40541 3.0934 1.77558 2.43449 2.43449C1.77558 3.0934 1.40541 3.98708 1.40541 4.91892V47.0811C1.40541 48.0129 1.77558 48.9066 2.43449 49.5655C3.0934 50.2244 3.98708 50.5946 4.91892 50.5946H47.0811C48.0129 50.5946 48.9066 50.2244 49.5655 49.5655C50.2244 48.9066 50.5946 48.0129 50.5946 47.0811V4.91892C50.5946 3.98708 50.2244 3.0934 49.5655 2.43449C48.9066 1.77558 48.0129 1.40541 47.0811 1.40541H4.91892Z" fill="black"/>
<path d="M27.4195 5.02429L44.9308 4.81348L27.2297 22.5497L27.4195 5.02429Z" fill="#C7ABE8"/>
<path d="M43.2163 5.53729L27.9536 20.8281L28.1082 5.71296L43.2163 5.53729ZM46.6454 4.08972L26.7028 4.32864L26.4919 24.2643L46.6454 4.08972Z" fill="black"/>
<path d="M32.9779 31.0102C31.8415 30.9956 30.7191 30.7568 29.6752 30.3075L30.2162 29.0146C35.2898 31.1227 38.3535 27.054 39.1406 25.8102C35.4373 19.8654 30.4762 22.2124 30.2584 22.2967L29.626 21.081C29.6962 21.081 36.1541 17.9329 40.56 25.48L40.7568 25.8243L40.5741 26.1686C40.539 26.1967 37.8687 31.0102 32.9779 31.0102Z" fill="#CB8858"/>
<path d="M21.3692 21.7838C21.3341 21.7205 18.2141 15.2557 25.7611 10.8497L26.1054 10.653L26.4497 10.8427C26.52 10.8778 33.4768 14.7567 30.6238 21.7416L29.3238 21.2005C31.4319 16.127 27.3633 13.0703 26.1195 12.2762C20.1746 15.9865 22.5216 20.9475 22.606 21.1584L21.3692 21.7838Z" fill="#CB8858"/>
<path d="M25.9017 40.553L25.5574 40.3633C25.4801 40.3211 18.5304 36.4492 21.3833 29.4644L22.6833 29.9984C20.5752 35.0579 24.6439 38.1287 25.8877 38.9227C31.8325 35.2195 29.4855 30.2584 29.4012 30.0476L30.659 29.4152C30.659 29.4854 33.8142 35.9503 26.2601 40.3492L25.9017 40.553Z" fill="#CB8858"/>
<path d="M19.1205 30.9962C16.8648 30.9962 13.8432 30.0546 11.4399 25.9298L11.2432 25.5925L11.4259 25.2411C11.468 25.1708 15.3399 18.2141 22.3248 21.0741L21.7837 22.367C16.7242 20.2589 13.6534 24.3346 12.8594 25.5784C16.5626 31.5233 21.5237 29.1762 21.7415 29.0919L22.3669 30.3498C21.3412 30.7877 20.2357 31.0079 19.1205 30.9962Z" fill="#CB8858"/>
<path d="M46.0552 8.38327L45.8936 23.4984L30.7996 23.6741L46.0552 8.38327ZM47.5028 4.91895L27.4055 25.1216L47.3201 24.8898L47.5028 4.91895Z" fill="#231816"/>
<path d="M30.7853 27.4054L45.9005 27.567L46.0762 42.6611L30.7853 27.4054ZM27.3491 26L47.5237 46.1114L47.2848 26.1968L27.3491 26Z" fill="#231816"/>
<path d="M27.9395 30.2654L43.2303 45.5281L28.1082 45.3665L27.9325 30.2654H27.9395ZM26.4919 26.8362L26.7028 46.7579L46.6454 46.9687L26.4919 26.8362Z" fill="#231816"/>
<path d="M8.91742 5.55841L24.0326 5.72003L24.2082 20.8141L8.91742 5.55841ZM5.4812 4.11084L25.6558 24.2433L25.4169 4.32868L5.4812 4.11084Z" fill="#231816"/>
<path d="M6.07135 8.43246L21.3622 23.66L6.24702 23.4984L6.07135 8.43246ZM4.62378 4.96814L4.85567 24.8898L24.7984 25.1006L4.62378 4.96814Z" fill="#231816"/>
<path d="M23.9763 30.4692L23.8147 45.5843L8.71361 45.76L23.9763 30.4692ZM25.4169 27.033L5.28442 47.2076L25.206 46.9686L25.4169 27.033Z" fill="#231816"/>
<path d="M21.1302 27.6232L5.87457 42.914L6.03619 27.7989L21.1302 27.6232ZM24.5946 26.1757L4.67997 26.4076L4.427 46.3784L24.5946 26.1757Z" fill="#231816"/>
</g>
<defs>
<clipPath id="clip0_75_286">
<rect width="52" height="52" fill="white"/>
</clipPath>
</defs>
</svg>
